<svg width="44" height="42" viewBox="0 0 44 42" fill="none" xmlns="http://www.w3.org/2000/svg">
<g filter="url(#filter0_d)">
<path fill-rule="evenodd" clip-rule="evenodd" d="M39.2373 18C39.2373 27.9403 31.1776 36 21.2373 36C11.297 36 3.23731 27.9403 3.23731 18C3.23731 17.8388 3.29104 17.6776 3.34478 17.5701L1.57164 19.3433C1.41045 19.5045 1.14179 19.6119 0.926866 19.6119C0.71194 19.6119 0.443284 19.5045 0.28209 19.3433C-0.0940298 18.9672 -0.0940298 18.3761 0.28209 18.0537L3.5597 14.7761C3.66716 14.6687 3.82836 14.5612 3.98955 14.5612C4.04328 14.5612 4.15075 14.5075 4.20448 14.5075C4.25821 14.5075 4.31194 14.5075 4.36567 14.5075C4.52687 14.5612 4.68806 14.6149 4.84925 14.7761L8.12687 18.0537C8.50299 18.4299 8.50299 19.0209 8.12687 19.3433C7.96567 19.5045 7.69701 19.6119 7.48209 19.6119C7.26716 19.6119 6.99851 19.5045 6.83731 19.3433L5.06418 17.5701C5.11791 17.6776 5.17164 17.8388 5.17164 18C5.17164 26.9194 12.4254 34.1731 21.3448 34.1731C30.2642 34.1731 37.5179 26.9194 37.5179 18C37.5179 9.0806 30.2642 1.82687 21.3448 1.82687C16.9388 1.82687 12.8552 3.54627 9.79254 6.71642C9.41642 7.09254 8.82537 7.09254 8.50299 6.71642C8.12687 6.3403 8.12687 5.74925 8.50299 5.42687C11.9418 1.93433 16.509 0 21.3985 0C31.1776 0 39.2373 8.0597 39.2373 18ZM26.9328 13.2179V16.0119H28.7597C29.2433 16.0119 29.6731 16.4418 29.6731 16.9254V26.597C29.6731 27.0806 29.2433 27.5104 28.7597 27.5104H13.7149C13.2313 27.5104 12.8015 27.0806 12.8015 26.597V16.9254C12.8015 16.4418 13.2313 16.0119 13.7149 16.0119H15.5418V13.2179C15.5418 10.1015 18.0672 7.52239 21.2373 7.52239C24.4075 7.52239 26.9328 10.1015 26.9328 13.2179ZM17.4224 16.0657H25.106V13.2716C25.106 11.1761 23.3866 9.45672 21.291 9.45672C19.1955 9.45672 17.4761 11.1761 17.4761 13.2716V16.0657H17.4224ZM14.6821 17.8925V25.7373H27.8463V17.8925H14.6821Z" fill="url(#paint0_linear)"/>
</g>
<defs>
<filter id="filter0_d" x="-4" y="0" width="47.2373" height="44" filterUnits="userSpaceOnUse" color-interpolation-filters="sRGB">
<feFlood flood-opacity="0" result="BackgroundImageFix"/>
<feColorMatrix in="SourceAlpha" type="matrix" values="0 0 0 0 0 0 0 0 0 0 0 0 0 0 0 0 0 0 127 0"/>
<feOffset dy="4"/>
<feGaussianBlur stdDeviation="2"/>
<feColorMatrix type="matrix" values="0 0 0 0 0 0 0 0 0 0 0 0 0 0 0 0 0 0 0.25 0"/>
<feBlend mode="normal" in2="BackgroundImageFix" result="effect1_dropShadow"/>
<feBlend mode="normal" in="SourceGraphic" in2="effect1_dropShadow" result="shape"/>
</filter>
<linearGradient id="paint0_linear" x1="0" y1="0" x2="0" y2="36" gradientUnits="userSpaceOnUse">
<stop stop-color="#00AEEF"/>
<stop offset="1" stop-color="#006DBF"/>
</linearGradient>
</defs>
</svg>
