<svg width="35" height="36" viewBox="0 0 35 36" fill="none" xmlns="http://www.w3.org/2000/svg">
<path fill-rule="evenodd" clip-rule="evenodd" d="M12.1426 21.0223C11.7682 20.6478 11.7682 20.0059 12.1426 19.6315L16.529 15.2452C16.6894 15.0847 16.9569 14.9777 17.2244 14.9777C17.4918 14.9777 17.7058 15.0847 17.9198 15.2452L22.3061 19.6315C22.6805 20.0059 22.6805 20.6478 22.3061 21.0223C21.9317 21.3967 21.2897 21.3967 20.9153 21.0223L18.1872 18.2942V29.0996C18.1872 29.6345 17.7593 30.0624 17.2244 30.0624C16.6894 30.0624 16.2615 29.6345 16.2615 29.0996V18.2942L13.5334 21.0223C13.159 21.3967 12.5171 21.3967 12.1426 21.0223ZM34.2348 9.36107C34.3418 9.52155 34.4487 9.73551 34.4487 9.94948V35.0371C34.4487 35.5721 34.0208 36 33.4859 36H0.962853C0.427935 36 0 35.5721 0 35.0371V9.94948C0 9.73551 0.0534918 9.52155 0.213967 9.36107L7.27489 0.374443C7.43536 0.160475 7.75632 0 8.02377 0H26.425C26.7459 0 27.0134 0.160475 27.1738 0.374443L34.2348 9.36107ZM18.1872 8.98663H31.5067L25.997 1.9792H18.2407V8.98663H18.1872ZM2.94205 8.98663H16.2615V1.9792H8.5052L2.94205 8.98663ZM32.523 10.9658H1.92571V34.0743H32.523V10.9658Z" fill="url(#paint0_linear)"/>
<defs>
<linearGradient id="paint0_linear" x1="0" y1="0" x2="0" y2="36" gradientUnits="userSpaceOnUse">
<stop stop-color="#00AEEF"/>
<stop offset="1" stop-color="#006DBF"/>
</linearGradient>
</defs>
</svg>
