<svg width="62" height="36" viewBox="0 0 62 36" fill="none" xmlns="http://www.w3.org/2000/svg">
<path fill-rule="evenodd" clip-rule="evenodd" d="M47.3957 6.66906V6.60432C47.3957 6.53957 47.3957 6.53957 47.3309 6.47482C47.3309 6.41007 47.2662 6.41007 47.2662 6.34532C47.2662 6.34532 47.2662 6.28058 47.2014 6.28058C47.1367 6.21583 47.1367 6.15108 47.0719 6.15108L41.2446 0.323741C41.0504 0.129496 40.7266 0 40.4676 0H32.3094H24.5396C24.2158 0 23.9568 0.129496 23.7626 0.323741L17.9353 6.15108C17.8705 6.21583 17.8705 6.28058 17.8058 6.28058L17.741 6.34532C17.741 6.41007 17.6763 6.41007 17.6763 6.47482C17.6763 6.53957 17.6763 6.53957 17.6115 6.60432V6.66906C17.6115 6.73381 17.6115 6.79856 17.6115 6.86331V31.2734C17.6115 31.8561 18.1295 32.3741 18.7122 32.3741H22.8561C22.9856 32.3741 23.0504 32.3741 23.1799 32.3094C23.5036 34.3813 25.3165 36 27.518 36C29.6547 36 31.4676 34.446 31.7914 32.3741C31.8561 32.3741 31.9209 32.3741 31.9856 32.3741H46.4245H48.8849C49.2734 34.446 51.0216 36 53.1583 36C55.295 36 57.1079 34.446 57.4317 32.3741H60.7338C61.3165 32.3741 61.8345 31.8561 61.8345 31.2734V19.813C61.8345 16.8993 60.9928 14.4388 59.4389 12.7554C57.9496 11.1367 55.8777 10.295 53.5468 10.295H47.4604V6.86331C47.3957 6.79856 47.3957 6.73381 47.3957 6.66906ZM33.4101 2.20144H40.0144L43.6403 5.82734H33.4101V2.20144ZM24.9281 2.20144H31.1439V5.82734H21.3022L24.9281 2.20144ZM27.3885 33.8633C26.223 33.8633 25.2518 32.8921 25.2518 31.7266C25.2518 30.5612 26.223 29.5899 27.3885 29.5899C28.554 29.5899 29.5252 30.5612 29.5252 31.7266C29.5252 32.8921 28.554 33.8633 27.3885 33.8633ZM45.1295 11.3957V30.2374H31.8561C31.7266 30.2374 31.5971 30.2374 31.5324 30.3022C30.9496 28.554 29.3309 27.3237 27.3885 27.3237C25.446 27.3237 23.8273 28.6187 23.2446 30.3022C23.1151 30.2374 22.9209 30.1727 22.7914 30.1727H19.813V7.96403H45.1942V11.3957H45.1295ZM53.0288 33.8633C51.8633 33.8633 50.8921 32.8921 50.8921 31.7266C50.8921 30.5612 51.8633 29.5899 53.0288 29.5899C54.1942 29.5899 55.1655 30.5612 55.1655 31.7266C55.1655 32.8921 54.1942 33.8633 53.0288 33.8633ZM53.482 12.4964C57.2374 12.4964 59.5683 15.2806 59.5683 19.813V30.1727H57.1727C56.5899 28.4892 54.9712 27.259 53.0288 27.259C51.1511 27.259 49.5324 28.4892 48.9496 30.1727H47.4604V12.4964H53.482ZM5.82734 11.9784H14.3094C14.8921 11.9784 15.4101 12.4964 15.4101 13.0791C15.4101 13.6619 14.8921 14.1799 14.3094 14.1799H5.82734C5.2446 14.1799 4.72662 13.6619 4.72662 13.0791C4.72662 12.4964 5.2446 11.9784 5.82734 11.9784ZM0 19.1007C0 18.518 0.517986 18 1.10072 18H14.2446C14.8273 18 15.3453 18.518 15.3453 19.1007C15.3453 19.6835 14.8273 20.2014 14.2446 20.2014H1.10072C0.517986 20.2014 0 19.7482 0 19.1007ZM15.4101 25.1223C15.4101 25.705 14.8921 26.223 14.3094 26.223H5.82734C5.2446 26.223 4.72662 25.705 4.72662 25.1223C4.72662 24.5396 5.2446 24.0216 5.82734 24.0216H14.3094C14.9568 24.0216 15.4101 24.4748 15.4101 25.1223ZM25.2518 19.2302C25.2518 18.6475 25.7698 18.1295 26.3525 18.1295H34.8993L33.4101 16.6403C32.9568 16.187 32.9568 15.4748 33.4101 15.0863C33.8633 14.6331 34.5755 14.6331 34.964 15.0863L38.3309 18.4532C38.3957 18.518 38.3957 18.5827 38.4604 18.5827C38.4604 18.5827 38.4604 18.6475 38.5252 18.6475C38.5252 18.7122 38.5899 18.7122 38.5899 18.777C38.5899 18.8417 38.5899 18.8417 38.6547 18.9065V18.9712C38.6547 19.036 38.6547 19.1007 38.6547 19.1655C38.6547 19.2302 38.6547 19.295 38.6547 19.3597V19.4245C38.6547 19.4892 38.6547 19.4892 38.5899 19.554C38.5899 19.6187 38.5252 19.6187 38.5252 19.6835C38.5252 19.6835 38.5252 19.7482 38.4604 19.7482C38.3957 19.813 38.3957 19.8777 38.3309 19.8777L34.7698 23.4388C34.5755 23.6331 34.2518 23.7626 33.9928 23.7626C33.7338 23.7626 33.4101 23.6331 33.2158 23.4388C32.7626 22.9856 32.7626 22.2734 33.2158 21.8849L34.8993 20.2014H26.3525C25.7698 20.3309 25.2518 19.813 25.2518 19.2302Z" fill="url(#paint0_linear)"/>
<defs>
<linearGradient id="paint0_linear" x1="0" y1="0" x2="0" y2="36" gradientUnits="userSpaceOnUse">
<stop stop-color="#00AEEF"/>
<stop offset="1" stop-color="#006DBF"/>
</linearGradient>
</defs>
</svg>
