<svg width="37" height="36" viewBox="0 0 37 36" fill="none" xmlns="http://www.w3.org/2000/svg">
<path fill-rule="evenodd" clip-rule="evenodd" d="M26.5909 20.4545C32.2302 20.4545 36.8182 15.8668 36.8182 10.2275C36.8182 4.58812 32.2302 0 26.5909 0C20.9517 0 16.3636 4.58812 16.3636 10.2275C16.3636 12.0661 16.8504 13.8469 17.7765 15.4164L17.1163 17.1613L16.4049 19.0408L18.3988 18.7926L20.6077 18.5176C22.3435 19.77 24.4484 20.4545 26.5909 20.4545ZM18.2493 17.5894L19.1234 15.2797C18.1465 13.8383 17.5751 12.0996 17.5751 10.2275C17.5751 5.24793 21.6115 1.21144 26.5909 1.21144C31.5704 1.21144 35.6068 5.24793 35.6068 10.2275C35.6068 15.207 31.5704 19.2435 26.5909 19.2435C24.4538 19.2435 22.4934 18.4962 20.9484 17.2538L18.2493 17.5894ZM10.2275 17.1818C13.1597 17.1818 15.5455 19.5676 15.5455 22.4998C15.5455 25.4328 13.1597 27.8186 10.2275 27.8182C7.29487 27.8182 4.90909 25.4324 4.90909 22.4998C4.90909 19.5676 7.29487 17.1818 10.2275 17.1818ZM10.2275 18.3872C7.95961 18.3872 6.11451 20.2323 6.11451 22.4998C6.11451 24.7681 7.9592 26.6132 10.2275 26.6128C12.4949 26.6128 14.34 24.7677 14.34 22.4998C14.34 20.2323 12.4949 18.3872 10.2275 18.3872ZM19.6364 36C19.6364 31.9394 16.3551 28.6364 12.3216 28.6364H7.31477C3.28169 28.6364 0 31.9398 0 36H1.17765C1.17765 32.5931 3.93113 29.8218 7.31477 29.8218H12.3212C15.7109 29.8218 18.4587 32.5879 18.4587 36H19.6364Z" fill="url(#paint0_linear)"/>
<defs>
<linearGradient id="paint0_linear" x1="0" y1="0" x2="0" y2="36" gradientUnits="userSpaceOnUse">
<stop stop-color="#00AEEF"/>
<stop offset="1" stop-color="#006DBF"/>
</linearGradient>
</defs>
</svg>
